PathFileType	4	(X/Y/Z)	Formatted/subject01/trials/walk2/markers.trc
DataRate	CameraRate	NumFrames	NumMarkers	Units	OrigDataRate	OrigDataStartFrame	OrigNumFrames
200.00000000000426	200.00000000000426	4	64	m	200.00000000000426	0	223
Frame#	Time	CLAV			C7			RACR			RASH			RPSH			RLEL			RMEL			RUA1			RUA2			RUA3			RFAsuperior			RFAradius			RFAulna			RASI			RPSI			RCAL			RTOE			RMT5			RTH1			RTH2			RTH3			RTB1			RTB2			RTB3			RLFC			RMFC			RLMAL			RMMAL			RHJC			RKJC			REJC			RAJC			RSJC			LACR			LASH			LPSH			LLEL			LMEL			LUA1			LUA2			LUA3			LFAsuperior			LFAradius			LFAulna			LASI			LPSI			LCAL			LTOE			LMT5			LTH1			LTH2			LTH3			LTB1			LTB2			LTB3			LLFC			LMFC			LLMAL			LMMAL			LHJC			LKJC			LEJC			LAJC			LSJC			
		X1	Y1	Z1	X2	Y2	Z2	X3	Y3	Z3	X4	Y4	Z4	X5	Y5	Z5	X6	Y6	Z6	X7	Y7	Z7	X8	Y8	Z8	X9	Y9	Z9	X10	Y10	Z10	X11	Y11	Z11	X12	Y12	Z12	X13	Y13	Z13	X14	Y14	Z14	X15	Y15	Z15	X16	Y16	Z16	X17	Y17	Z17	X18	Y18	Z18	X19	Y19	Z19	X20	Y20	Z20	X21	Y21	Z21	X22	Y22	Z22	X23	Y23	Z23	X24	Y24	Z24	X25	Y25	Z25	X26	Y26	Z26	X27	Y27	Z27	X28	Y28	Z28	X29	Y29	Z29	X30	Y30	Z30	X31	Y31	Z31	X32	Y32	Z32	X33	Y33	Z33	X34	Y34	Z34	X35	Y35	Z35	X36	Y36	Z36	X37	Y37	Z37	X38	Y38	Z38	X39	Y39	Z39	X40	Y40	Z40	X41	Y41	Z41	X42	Y42	Z42	X43	Y43	Z43	X44	Y44	Z44	X45	Y45	Z45	X46	Y46	Z46	X47	Y47	Z47	X48	Y48	Z48	X49	Y49	Z49	X50	Y50	Z50	X51	Y51	Z51	X52	Y52	Z52	X53	Y53	Z53	X54	Y54	Z54	X55	Y55	Z55	X56	Y56	Z56	X57	Y57	Z57	X58	Y58	Z58	X59	Y59	Z59	X60	Y60	Z60	X61	Y61	Z61	X62	Y62	Z62	X63	Y63	Z63	X64	Y64	Z64	

1	3.38	0.9977381536342094	1.440711390263483	-0.4797266073887419	0.8824402232054791	1.516536955618992	-0.5141373543196771	0.9439499891817671	1.46500464567292	-0.3474786063845031	0.9968489017930984	1.422410063938428	-0.3209364257174496	0.8998932052876486	1.446053110646565	-0.3171080963768736	0.7559585196167166	1.158051469464889	-0.2821176408370346	0.7700881178994561	1.145891039927688	-0.3614636081550923	0.8285170541487191	1.372494190001736	-0.2969740495838628	0.8650171259527925	1.299034705855046	-0.2933871939929517	0.7978526691683016	1.210766220536864	-0.2808801232269629	0.7883360200441123	1.052437550068273	-0.2930960220310577	0.7816121917877065	0.8798435430128742	-0.3007404594887639	0.7143472075681261	0.8936540709265084	-0.2971712194295439	0.9672771641423746	1.008831621838712	-0.4107124045913984	0.7960571267813126	1.054763085273074	-0.4699406981296944	1.143067109944596	0.04717477462493252	-0.4464160649896198	1.369446408995061	0.132805749385422	-0.4568390779420691	1.332802866975956	0.09026007291787783	-0.3638002665174295	0.8973536509727392	0.8915558138424982	-0.3600827923540914	0.8981490168335624	0.7375564531579024	-0.3800665835577105	0.9888530646907524	0.6091303110292876	-0.3882554637190172	1.147657112322586	0.3950918119940934	-0.4432570082838058	1.090858610516134	0.3221196334038375	-0.3796155887232934	1.200706228516276	0.2133909845362659	-0.4475147171968448	1.048677132613958	0.5338929779594156	-0.3904509963734329	1.056324648945306	0.5344832885819683	-0.5039605372318589	1.205111066908979	0.0896394633986099	-0.381596275206993	1.222058303982345	0.0941203115982972	-0.4847935449317364	0.8799095677474068	0.9049952246798121	-0.4569054236617505	1.053247200884495	0.5341621740105446	-0.4488520397064872	0.7627509012922329	1.140762959379557	-0.3268249927994879	1.20660118649828	0.07479162462317268	-0.4420466091900936	0.9514300057651204	1.433485649168855	-0.3191430448378568	0.9312903368353154	1.484773771293656	-0.6774008094871963	0.9854534381461773	1.438665162211444	-0.7099246840735041	0.8807412859202914	1.464199652656232	-0.705790088385682	0.8878537074334466	1.120413188681313	-0.7936341495765247	0.8801610217268625	1.107743875148741	-0.7077314713904677	0.8653222005426584	1.355264418044801	-0.743301743793732	0.9228951193976345	1.283186735463033	-0.7549503968232809	0.891860424448997	1.191326998697184	-0.7774287424280197	0.9672383565941123	1.087608764330521	-0.7724097876968402	1.121041707906622	0.9956698196237619	-0.7286834067106378	1.084156581022148	0.9383530032313527	-0.7509893707560081	0.9508086947327591	1.021373947548463	-0.6600318943938532	0.7893717928786712	1.064902957414799	-0.5821282120115121	0.5098562497035556	0.08011404499580826	-0.5643266843124073	0.7435189640239253	0.03873348120923249	-0.5646412878107709	0.689744071867474	0.009481840666997501	-0.6593686032967819	0.8931181347527273	0.863481181465802	-0.7071198836997461	0.7718138561002286	0.748978708460727	-0.6613171014623457	0.7771932285057879	0.606844374629507	-0.6480923041358218	0.7673879071404752	0.3755350614549569	-0.582841173857694	0.656723079566412	0.3009351496158837	-0.6390719161182725	0.6746049284342632	0.1794934659935554	-0.5834126743247942	0.7606765173938663	0.517617020952595	-0.6577678007381851	0.7715813550243195	0.5190076869466793	-0.5445317667079067	0.5837196478973181	0.08137663180292148	-0.6354227140932469	0.6029687610890029	0.0793804487737092	-0.5325516772641251	0.8708187595823835	0.9135296585224897	-0.6160853190910317	0.7669922150680739	0.5176136105899916	-0.5994383234013657	0.8872848211272092	1.107414643809167	-0.7452216740963599	0.5771055463599187	0.07276907923292913	-0.5741113338203483	0.9400345421181994	1.449740747441871	-0.7081313031939113	
2	3.385	1.004187838662497	1.439826847620918	-0.4788919073527046	0.8889136652128887	1.515709020610819	-0.513257433462688	0.9503660123593121	1.463993199898552	-0.3466343514469972	1.003249502629797	1.421361532531702	-0.3201209944831213	0.9062970234406081	1.445018330406745	-0.3162961361315939	0.762413408460187	1.156898060191064	-0.2818576448635339	0.7765681843328057	1.144884501424477	-0.3612214958887758	0.8349269133557331	1.371383929472318	-0.2963054021966651	0.871442830342733	1.297926433883091	-0.2928411946123131	0.8042951075480059	1.209620077333037	-0.2805128820349801	0.7948489406037232	1.051306346138269	-0.2931220647872493	0.7881267869175893	0.8787265093973022	-0.3010814091186998	0.7208681774517854	0.8925228805059402	-0.2973413750448964	0.9739632221616527	1.008155568993226	-0.4104604954884109	0.802594152660032	1.053970641263134	-0.4693469324128509	1.149048537019846	0.04667842381716696	-0.4466374471138113	1.375880093530047	0.1309889209740367	-0.4579544748304565	1.33936882711189	0.08862206453595571	-0.364782155501195	0.9042280784240332	0.8908265956741681	-0.3595997191841313	0.9051922129989052	0.7368297123840746	-0.3795951684275343	0.9960566588907841	0.6085313745815464	-0.3880061747814135	1.154560217615305	0.3943587730420144	-0.4435019569037119	1.097806446993244	0.3215134104512578	-0.3796756174462228	1.207170440967034	0.2125350369464595	-0.4479540243014666	1.055980806682449	0.5333781316651551	-0.3903476154867154	1.063359720033288	0.5339860404687411	-0.5038748409579974	1.211508653586426	0.08876742716866531	-0.3820613747821189	1.228118269724713	0.09321833582926042	-0.4853148172791356	0.8865368331633778	0.9042473987493527	-0.4563800768116467	1.060456827601752	0.5336496027670155	-0.448766753978029	0.7692223718117365	1.13969205388403	-0.3265942933112075	1.212760293113782	0.07392178806408167	-0.4425176569158245	0.9578321137536215	1.432443559496266	-0.3183292395883483	0.9378050127893209	1.484105710712077	-0.6765395702963732	0.9919690662500692	1.43802085087343	-0.7090955036966972	0.8872603887257451	1.463570192578476	-0.7049646566770476	0.894578946173764	1.119856339964219	-0.793244249829361	0.8869746397111125	1.107054002553528	-0.7073534254163361	0.8718894934378741	1.354613646378839	-0.7425459695065244	0.9295142705401818	1.282603124026195	-0.7543525000575068	0.8985388704555163	1.190749680662262	-0.7769380946291764	0.9739909058364412	1.087021161366739	-0.7721019040032497	1.127786362671094	0.9949236793863538	-0.7286824602850783	1.090884741396288	0.9376800338528741	-0.7511484668720606	0.9569401493966014	1.020497056492207	-0.6597527558861409	0.7956574064081913	1.064020437076818	-0.5815272877473041	0.5106373705608696	0.08204245343362844	-0.5640270942007024	0.7438861615475182	0.03840984123068131	-0.56540939439698	0.6894290854100791	0.009843615583538627	-0.6599559935472088	0.8986970663768047	0.8628358412742706	-0.7068738142039839	0.7773153350626036	0.7485550193122438	-0.660723968708919	0.7823363794453373	0.6063624396636416	-0.6479936438256898	0.7711795500416958	0.3748343716970124	-0.583173464308325	0.6595076131254312	0.3014853629076347	-0.6390577080497938	0.6763443737039949	0.1797770165471557	-0.583655576715331	0.7654885686187621	0.5172180373601833	-0.6578609855625946	0.7770688577194153	0.5182051018985941	-0.5446877933017845	0.5842215289040924	0.08269858999488183	-0.6354363856187795	0.603872672283285	0.08034170010107655	-0.5326490276530751	0.8770917136957974	0.9126541899804613	-0.6155461348844182	0.7722053094212191	0.516934762896156	-0.5995552440728463	0.8940649369483359	1.106786100652762	-0.7448504669497639	0.5777704017408938	0.07406601745110125	-0.57411115996929	0.9465516773738936	1.449102877837994	-0.7073037488019241	
3	3.39	1.010651814792287	1.43901204542995	-0.4780604379014934	0.8953782833902817	1.514931939736959	-0.5123447088358314	0.9568170381659897	1.463016558627555	-0.3457786824137807	1.009699505791745	1.420354586155483	-0.3193120727751583	0.9127458915103287	1.444003535206898	-0.3154675006827344	0.7690759129859752	1.155678829382808	-0.2814779339717749	0.78320982824626	1.143822670649228	-0.3608691681434286	0.841428809221508	1.370243578847473	-0.2955548973881065	0.8779991589413295	1.296806255494566	-0.2922404372569705	0.8109199484030036	1.208428584319406	-0.2800509612273139	0.8015660405270991	1.0501134423483	-0.293045851065876	0.79484341579565	0.8775487996447402	-0.3013276967066854	0.7275929536920143	0.8913297548209387	-0.2973895652724812	0.9806355934728127	1.007506422668212	-0.4101701879670206	0.8091679838796403	1.053265581210286	-0.4688127454873832	1.153734407806122	0.0463544414437969	-0.4467765803743318	1.381535471077315	0.1278510383345204	-0.4591810289216521	1.344971705527326	0.08586901428001571	-0.3658552291973051	0.9109916005469606	0.8901668291603657	-0.3590825580106151	0.9123588878340766	0.7361764694966746	-0.379104727351328	1.003570147903312	0.6081341641626299	-0.3876621872162895	1.16149423688377	0.3935776449349586	-0.4436578681650948	1.104548791940986	0.3210543514845058	-0.3796357848913463	1.213010154950351	0.2114467456945924	-0.4483454304987447	1.063700982514821	0.533149218287218	-0.3900986549400076	1.070921566361656	0.533796059987263	-0.5036358453371893	1.216861446694116	0.08763999309600928	-0.3824960710302071	1.233111690907349	0.09201700941247887	-0.4858098388195322	0.8931294090232595	0.9035536878603014	-0.4558362135729963	1.068198111052443	0.5334242958635519	-0.4485413581750393	0.7758806680606428	1.13856072124372	-0.3262489293974236	1.217799561873041	0.07280155160543528	-0.4429597977215225	0.9642815851816158	1.431432936338618	-0.3175110829784623	0.9442856778314432	1.483527853937152	-0.6756604748764212	0.9984542493564479	1.437484212846559	-0.7082671730728654	0.8937443459325178	1.463025077822087	-0.7041150352130476	0.9013311182365401	1.119375418146225	-0.7927946956965954	0.8938432283276548	1.106447324185177	-0.7069124802527043	0.8784384322927681	1.354037657942755	-0.7417488540231517	0.9361299312803765	1.282108134083919	-0.7537221147004475	0.9052308377984751	1.190250843424228	-0.7763964112723369	0.9807542038152363	1.086433412228482	-0.7717780179508752	1.13446945500059	0.9940203077107381	-0.7287469072364342	1.097479312850415	0.9368877117564515	-0.7513496044620376	0.9631905849299826	1.019595427872384	-0.6594456501456624	0.8020414604395096	1.063201742647549	-0.5809913277879868	0.5114983918923101	0.0841182674638281	-0.5637019996850022	0.7442730520519594	0.03806696562967957	-0.5661411153359336	0.6891229183353007	0.01021834307826569	-0.6604998922094175	0.9043301888989899	0.8622384703238229	-0.7066224612881482	0.7829262778075227	0.7481222157012668	-0.6601250419298355	0.7876440848979606	0.6058738068020424	-0.6479129893854628	0.7751275137128865	0.3741245394904504	-0.5835218455698302	0.6624340690222479	0.3020748805711718	-0.6390446468044932	0.6781777129476219	0.1801092889743687	-0.5838873591683508	0.7704979052266674	0.5168089760066324	-0.6579828485059497	0.7827698515544744	0.517375556244776	-0.544879678087428	0.5847913012660548	0.08411332593483095	-0.6354222483206544	0.604842637199707	0.08139155204240928	-0.5327212298359026	0.8834149043528121	0.9117992441283096	-0.6149944922261162	0.7776288601902633	0.5162294335694353	-0.5997045033894918	0.9008892708644415	1.10623857066267	-0.7444182386990663	0.5785016622502893	0.07546083107579454	-0.5740830567289329	0.9530363287463183	1.448562563029694	-0.7064661832761694	
4	3.395	1.017123399334866	1.438253544781406	-0.4772188838293396	0.9018390868507947	1.514202601341148	-0.5114021652653851	0.9632870924895717	1.462077398762726	-0.3449050950168943	1.016175712994485	1.419387985534788	-0.3184950870179992	0.9192189316119224	1.443018680645384	-0.3146182789799286	0.7758986326985488	1.154412172728531	-0.2809960031027252	0.789989496418335	1.142713439856711	-0.3604182376005238	0.8479908296549925	1.369085994636502	-0.2947437131282865	0.8846492719604467	1.295685705004959	-0.2915857587946069	0.8176820558077607	1.207208190524497	-0.279505280046379	0.8084644059559875	1.048881331214987	-0.292867829643836	0.8017770069484944	0.8763303992337159	-0.3014581223521822	0.7345331801112005	0.8900807473976066	-0.2973055405574642	0.9874220337075985	1.006949513411153	-0.4099314650505996	0.8158163840989643	1.052588838555545	-0.4682627971575158	1.157293521290029	0.04588610838058119	-0.4467864095746528	1.386190741159175	0.1240569994500621	-0.4603608193812534	1.349514636791623	0.08255709827114649	-0.3668636228475755	0.9178456619131887	0.8895908781088872	-0.3585653855559549	0.9197206946659724	0.7356065278342139	-0.3785926602494668	1.011360493855354	0.6078760384403565	-0.3872312551439124	1.168374586408468	0.3926690428516932	-0.4437186920029986	1.111040531501589	0.320657271894256	-0.3794664552259691	1.218208711281535	0.2100771052853856	-0.4486453386207471	1.071744449034171	0.5330965290285964	-0.3897209706061518	1.078865859581203	0.5337705558039031	-0.5032642664817198	1.22120875038906	0.0862297987331932	-0.3828279624603468	1.237063456260157	0.09047521884411008	-0.4862086571449626	0.8998553577511256	0.9029189763768187	-0.4553034157678738	1.076336824397952	0.5333606832978018	-0.4481923949920655	0.7826912923198694	1.137381502367669	-0.3258021677636253	1.221757270807414	0.07139316437246757	-0.4432969219152356	0.9707563087558235	1.430457784659346	-0.316678996292565	0.9507486112836937	1.483019170180611	-0.6747595688753022	1.004923020590336	1.437025662095579	-0.7074272652054885	0.9002096966971689	1.462546812815022	-0.7032403125243721	0.9080512242565766	1.118961049028719	-0.7922910871831492	0.900710684305819	1.105911877690254	-0.706414462663348	0.8849622752970456	1.353529310243817	-0.7409028485028419	0.9427194930930247	1.281683249676467	-0.7530589910926225	0.9118931556573725	1.189819496184418	-0.7758060187012453	0.9874755602048412	1.085857738810155	-0.7714382217309158	1.141060599612609	0.9930132538273408	-0.7288732819178173	1.103928708983975	0.9360211233719237	-0.7515978462290218	0.9694502077054296	1.01876774958925	-0.6591824854658586	0.8084512641558395	1.062403388851906	-0.580436673698032	0.5124575394524004	0.08638037783550841	-0.5633508846733823	0.7446849188195589	0.03770792197581897	-0.5668366286495146	0.6888262148428913	0.01061329668645235	-0.6609979172479199	0.9100289683656926	0.8617116707221515	-0.7063833271795299	0.7886476075295888	0.7477147997169212	-0.6595355113610715	0.7931041596191676	0.6054127640747679	-0.6478619702949597	0.7792214613791627	0.3734449174007347	-0.5838961716805561	0.6654962025416383	0.3027356850300851	-0.6390370570875012	0.6801104091788028	0.1805245523711255	-0.5841129434800544	0.7756841440011923	0.5164252038103885	-0.6581427678663884	0.7886639398284075	0.5165568194982935	-0.5451172998684434	0.5854402887473057	0.08564943176458106	-0.6353805881886527	0.6058949542415506	0.08255965636551355	-0.5327695591949193	0.8898043077707714	0.9109921280893238	-0.6144496349460387	0.7832409839304993	0.5155356497240615	-0.5998962746735881	0.9076992282685024	1.105760439798123	-0.7439312526372609	0.5793143741207479	0.07698145739839274	-0.5740270141954824	0.959503616351675	1.448095461220137	-0.7056111744800542	
